# xmcd
#
# Track frame offsets:
#	150
#	28894
#	61731
#	92261
#	135232
#	172833
#	208054
#	236136
#	267476
#
# Disc length: 3575 seconds
#
# Revision: 0
# Processed by: cddbd v1.5.1PL0 Copyright (c) Steve Scherf et al.
# Submitted via: audiograbber 1.83.01
#
DISCID=720df509
DTITLE=Kijitonjama Upendo Group - Haleluya Tunaimba
DYEAR=2000
DGENRE=African
TTITLE0=Haleluya
TTITLE1=Lessawane
TTITLE2=Chini ya Mwamba
TTITLE3=Mambo Sawa sawa
TTITLE4=Milele Milele
TTITLE5=Haleluya Tunaimba
TTITLE6=Tupendane
TTITLE7=Tuonane
TTITLE8=Leer
EXTD=
EXTT0=
EXTT1=
EXTT2=
EXTT3=
EXTT4=
EXTT5=
EXTT6=
EXTT7=
EXTT8=
PLAYORDER=
